<svg width="167" height="23" viewBox="0 0 167 23" fill="none" xmlns="http://www.w3.org/2000/svg">
<path fill-rule="evenodd" clip-rule="evenodd" d="M150.179 0.451757H166.482V2.24162C166.008 2.13206 165.512 2.07559 165.013 2.07436H155.642V10.438H164.758C165.413 10.438 165.996 10.3885 166.481 10.3041V12.0861C166.068 12.0194 165.499 11.9855 164.794 11.9855H155.642V20.6337H164.733C165.232 20.6337 165.826 20.5837 166.481 20.4748V22.3985H150.203C150.333 22.0602 150.399 21.7116 150.398 21.3616V1.51371C150.398 1.07912 150.325 0.719574 150.179 0.451757ZM146.405 6.14753L141.695 6.123C141.464 4.2993 139.947 2.53396 136.609 2.20875C129.459 1.76534 127.444 7.17612 127.626 11.1326C127.809 14.9462 128.694 20.8093 136.075 20.8093C139.171 20.8093 142.144 18.6177 142.047 16.7695L146.405 16.7449C146.089 20.5586 139.741 22.7664 136.718 22.8419C126.389 23.0847 122.066 18.342 121.848 11.575C121.654 5.44561 125.296 0 135.504 0C144.244 0.0838768 145.931 3.64692 146.405 6.14753ZM72.9408 19.9058L76.0611 18.1076C77.687 19.9563 79.0225 20.8005 82.2517 20.8005C85.5286 20.8005 88.285 19.429 88.285 17.0039C88.285 15.8076 87.5802 14.829 86.1849 14.0933C85.5528 13.7499 83.951 13.1564 81.4259 12.3284C77.6507 11.0825 73.9731 9.45943 73.9731 6.19805C73.9731 2.08269 79.0467 0.267817 84.3995 0.133418C87.5681 0.0500318 91.5014 1.25521 93.091 2.6095L89.9231 4.29047C89.3581 3.56397 88.5181 2.95645 87.4923 2.53241C86.4665 2.10837 85.2932 1.88364 84.0969 1.88208C80.0541 1.88208 76.8498 5.1106 80.2 7.33554C81.0493 7.90404 82.7863 8.60644 85.4324 9.44276C89.6561 10.8064 93.2612 12.4368 93.2612 16.042C93.2612 17.2879 92.7878 18.4504 91.853 19.5129C89.9722 21.6539 86.8278 22.7247 82.4339 22.7247C77.3838 22.7247 76.3892 21.9301 72.9408 19.9058ZM28.4893 0.451757H44.7782V2.24162C44.3051 2.1321 43.8094 2.07563 43.3103 2.07436H33.9396V10.438H43.0554C43.7111 10.438 44.2941 10.3885 44.7789 10.3041V12.0861C44.366 12.0194 43.7958 11.9855 43.1046 11.9855H33.9396V20.6337H43.0312C43.5289 20.6337 44.124 20.5837 44.7789 20.4748V22.3985H28.5143C28.6332 22.0589 28.6941 21.7109 28.6958 21.3616V1.51371C28.6958 1.07912 28.6225 0.719574 28.4893 0.451757ZM0 0.451757H5.92368V0.652865C5.92368 0.836806 6.0084 1.07912 6.15434 1.38863L14.5049 18.7099L23.0754 1.31309C23.2085 1.02075 23.2818 0.736251 23.2818 0.451757H26.1586C25.8674 0.802961 25.6489 1.11296 25.515 1.38863L15.7308 21.5038C15.6339 21.6961 15.5492 21.9973 15.4766 22.399H10.6208C10.5474 22.0949 10.4379 21.7955 10.2933 21.5038L0.704065 1.54755C0.482555 1.1795 0.251627 0.814183 0.0113903 0.451757H0ZM62.9145 11.8938C66.7986 11.3665 69.7729 9.31768 69.7729 6.39033C69.7729 2.55064 65.1114 0.451267 59.8918 0.451267H50.3509C50.4841 0.786283 50.5574 1.13749 50.5574 1.50537V21.3439C50.5574 21.7707 50.4841 22.1302 50.3509 22.398H56.0319C55.8929 22.0549 55.8235 21.7002 55.8254 21.3439V12.2283L57.6457 12.3623L67.1631 22.398H72.8803L62.9145 11.8938ZM61.9314 10.2212C60.8998 10.7225 59.6611 10.9731 58.2409 10.9731H55.8133V2.05032H57.986C59.8441 2.05032 61.2878 2.36768 62.32 3.00289C63.7282 3.88188 64.4443 5.06939 64.4443 6.55808C64.4443 8.164 63.6064 9.38537 61.9314 10.2217M120.901 21.4872L110.293 1.17967C110.175 0.944873 110.105 0.69985 110.086 0.451757H105.497C105.497 0.711236 105.436 0.986901 105.29 1.26306L95.0096 21.4872C94.875 21.779 94.6572 22.0807 94.366 22.3985H97.3275C97.3161 22.064 97.3766 21.7545 97.5105 21.4872L100.556 15.5231H112.27L115.281 21.4877C115.439 21.8129 115.511 22.114 115.511 22.3985H121.654C121.301 22.0557 121.047 21.7462 120.901 21.4872ZM101.358 13.9088L106.31 3.99813L111.397 13.9088H101.358Z" fill="white"/>
</svg>
