<svg width="207" height="23" viewBox="0 0 207 23" fill="none" xmlns="http://www.w3.org/2000/svg">
<path fill-rule="evenodd" clip-rule="evenodd" d="M16.6481 20.9821C9.40945 20.9821 3.2308 16.4583 3.2308 11.5241C3.2308 6.60816 9.28013 1.99456 16.5961 1.99456C21.4053 1.99456 24.8682 3.59767 27.6867 6.10933H31.2281C30.1681 4.79105 29.0308 3.58015 27.2988 2.6358C24.3255 0.97938 20.4735 0 16.6481 0C7.47074 0 0 5.21905 0 11.5066C0 17.8116 7.57464 22.9774 16.7 22.9774C20.4227 22.9774 24.068 22.0338 26.9893 20.4482C28.8252 19.433 30.1173 18.1147 31.3586 16.7607H27.8172C25.0241 19.2723 21.4573 20.9821 16.6481 20.9821ZM53.3574 8.95913C51.1346 6.98209 48.1094 5.73539 44.3614 5.73539C37.64 5.73539 32.108 9.49451 32.108 14.1256C32.108 18.756 37.6665 22.5501 44.3614 22.5501C48.2653 22.5501 50.9788 21.4276 53.3574 19.3614V22.1754H56.2787V6.12684H53.3574V8.95913ZM44.2066 20.6972C39.0614 20.6972 35.0027 17.6159 35.0027 14.1431C35.0027 10.6871 39.036 7.5883 44.2066 7.5883C49.3507 7.5883 53.3574 10.6879 53.3574 14.1431C53.3574 17.6159 49.3242 20.6972 44.2066 20.6972ZM59.8201 22.1754H62.9492V0.462276H59.8201V22.1754ZM74.7627 19.628L66.8521 6.12684H63.7495L73.2374 22.1754H76.3908L85.8533 6.12684H82.8027L74.7627 19.628ZM87.1454 22.1754H90.2734V6.12684H87.1454V22.1754ZM87.1454 4.0607H90.2734V0.462276H87.1454V4.0607ZM103.743 5.73463C100.795 5.73463 98.7014 6.80388 96.7627 8.22878V6.12684H93.8668V22.1754H96.9428V12.3961C96.9174 9.81361 100.019 7.58753 103.794 7.58753C108.523 7.58753 110.902 10.4198 110.902 13.3412V22.1762H113.797V13.3412C113.798 9.17313 110.257 5.73463 103.743 5.73463ZM142.829 0.462276L128.611 12.9132V0.462276H125.535V22.1754H128.611V16.2085L132.644 12.7533L142.907 22.1754H146.812L134.608 11.0428L146.812 0.462276H142.829ZM147.948 22.1754H151V0.462276H147.948V22.1754ZM176.256 10.17C174.136 7.44436 169.896 5.73463 165.423 5.73463C158.755 5.73463 153.118 9.56458 153.118 14.1599C153.118 18.7903 158.806 22.5494 165.477 22.5494C168.655 22.5494 171.785 21.6766 174.084 20.1626C175.481 19.254 176.308 18.114 177.056 16.9206H173.775C172.119 19.1474 169.198 20.6965 165.422 20.6965C163.123 20.6965 160.874 20.0552 159.168 18.9685C157.408 17.8649 156.634 16.5101 156.297 14.9078H177.781C177.783 13.2338 177.445 11.6307 176.256 10.17ZM156.402 13.0556C157.334 10.0459 160.771 7.58753 165.477 7.58753C169.432 7.58753 173.672 9.26223 174.603 13.0556H156.402ZM180.057 22.1754H183.132V6.12684H180.057V22.1754ZM180.057 4.13229H183.132V0.462276H180.057V4.13229ZM196.654 5.73463C193.654 5.73463 191.56 6.80388 189.595 8.22878V6.12684H186.648V22.1754H189.751V12.3961C189.725 9.79609 192.905 7.58753 196.704 7.58753C201.411 7.58753 203.893 10.4198 203.893 13.3412V22.1762H206.788V13.3412C206.788 9.17313 203.193 5.73463 196.654 5.73463Z" fill="white"/>
</svg>
